<svg version="1.2" xmlns="http://www.w3.org/2000/svg" viewBox="0 0 300 118" width="300" height="118">
  <style>.a{fill:none;stroke:currentColor;stroke-width:11.1}.b{paint-order:stroke fill markers;stroke:#030101;stroke-width: 4;stroke-linejoin: round;;fill:#fff}</style>
  <path class="a" d="m123.5 84.3l-52.9 25.7-53-25.7v-51.4l53-25.7 52.9 25.7z" />
  <path class="b" d="m41.6 50.8v2h-5.7v-2.2q0-0.3-0.2-0.6-0.3-0.2-0.6-0.2h-2.3q-0.4 0-0.6 0.2-0.2 0.3-0.2 0.6v4.9q0 0.3 0.2 0.6 0.2 0.2 0.6 0.2h3.8q5.3 0.1 5.3 5.6v5.9q0 5.6-5.3 5.6h-5q-5.3 0-5.3-5.6v-2.8h5.7v3q0 0.4 0.2 0.6 0.2 0.3 0.6 0.3h2.6q0.3 0 0.6-0.3 0.2-0.2 0.2-0.6v-5.3q0-0.4-0.2-0.6-0.3-0.3-0.6-0.3h-3.8q-5.3 0-5.3-5.6v-5.4q0-5.6 5.3-5.6h4.7q5.3 0 5.3 5.6zm10.1-0.6v22.8h-6v-22.2q0-5.6 5.3-5.6h3.1q3.1 0 4.5 2 1.2-2 4.4-2h3.1q5.3 0 5.3 5.6v22.2h-6v-22.8q0-0.3-0.2-0.5-0.2-0.3-0.6-0.3h-2.3q-0.3 0-0.6 0.3-0.2 0.2-0.2 0.5v22.8h-5.9v-22.8q0-0.3-0.3-0.5-0.2-0.3-0.5-0.3h-2.3q-0.4 0-0.6 0.3-0.2 0.2-0.2 0.5zm23.8-4.6h5.9v27.4h-5.9zm13.2 5h-4.4v-5h14.8v5h-4.4v22.4h-6zm19.1 10.9v6.6h6.6v4.9h-12.6v-27.4h12.6v4.8h-6.6v6.4h6.2v4.7zm41-16.3h5.6q5.3 0 5.3 5.5v22.3h-5.9v-9.2h-4.3v9.2h-6v-22.3q0-5.5 5.3-5.5zm0.7 4.8v9.2h4.3v-9.2q0-0.3-0.3-0.6-0.2-0.2-0.5-0.2h-2.7q-0.4 0-0.6 0.2-0.2 0.3-0.2 0.6zm30.4 0.7v22.3h-6v-22.8q0-0.3-0.2-0.6-0.2-0.2-0.6-0.2h-2.3q-0.3 0-0.6 0.2-0.2 0.3-0.2 0.6v22.8h-5.9v-22.3q0-5.5 5.3-5.5h5.2q5.3 0 5.3 5.5zm9.2-5.5h5.7q5.3 0 5.3 5.5v22.3h-6v-9.2h-4.3v9.2h-5.9v-22.3q0-5.5 5.2-5.5zm0.7 4.8v9.2h4.3v-9.2q0-0.3-0.2-0.6-0.2-0.2-0.6-0.2h-2.7q-0.3 0-0.6 0.2-0.2 0.3-0.2 0.6zm20.6-4.4v22.4h6.5v5h-12.4v-27.4zm19.6 0h5.6l-5.9 17.4v10h-5.9v-10l-5.9-17.4h5.6l3.2 11.4zm11.1 5.1h-4.5v-5.1h14.9v5.1h-4.5v22.3h-5.9zm13.1-5h6v27.4h-6zm20.6 22.9v-4.2h5.7v3.6q0 5.5-5.3 5.5h-5.4q-5.2 0-5.2-5.5v-17.1q0-5.6 5.2-5.6h5.4q5.3 0 5.3 5.6v2.6h-5.7v-3.3q0-0.4-0.2-0.6-0.2-0.3-0.6-0.3h-2.7q-0.3 0-0.6 0.3-0.2 0.2-0.2 0.6v18.4q0 0.4 0.2 0.6 0.3 0.3 0.6 0.3h2.7q0.4 0 0.6-0.3 0.2-0.2 0.2-0.6zm24.5-17.7v2h-5.7v-2.2q0-0.3-0.2-0.5-0.2-0.3-0.6-0.3h-2.3q-0.3 0-0.6 0.3-0.2 0.2-0.2 0.5v4.9q0 0.4 0.2 0.6 0.3 0.3 0.6 0.3h3.8q5.3 0.1 5.3 5.6v5.9q0 5.5-5.3 5.5h-5q-5.3 0-5.3-5.5v-2.9h5.7v3.1q0 0.3 0.2 0.6 0.3 0.2 0.6 0.2h2.6q0.4 0 0.6-0.2 0.2-0.3 0.2-0.6v-5.4q0-0.4-0.2-0.6-0.2-0.3-0.6-0.3h-3.8q-5.3 0-5.3-5.6v-5.4q0-5.6 5.3-5.6h4.7q5.3 0 5.3 5.6z" />
</svg>