<svg viewBox="0 0 24 24" fill="currentColor" xmlns="http://www.w3.org/2000/svg">
  <path d="M18.43 19C15.56 19 14.06 16.33 13.55 15.18H10.45C9.93999 16.37 8.43999 19 5.56999 19C1.67999 19 1.67999 15.73 1.67999 14.34C1.67999 12.65 4.37999 7.34 4.91999 6.34C4.99263 6.23013 5.09258 6.14102 5.21004 6.08142C5.3275 6.02181 5.45843 5.99376 5.58999 6H18.41C18.5484 6.00084 18.684 6.03948 18.8021 6.11173C18.9201 6.18399 19.0162 6.28712 19.08 6.41C19.62 7.41 22.32 12.73 22.32 14.41C22.32 15.77 22.32 19 18.43 19ZM9.93999 13.72H14.06C14.2172 13.7186 14.3707 13.7673 14.4984 13.859C14.626 13.9506 14.7211 14.0806 14.77 14.23C14.77 14.23 15.93 17.54 18.43 17.54C20.65 17.54 20.82 16.23 20.82 14.38C20.82 13.46 19.21 9.92 17.95 7.46H6.04999C4.78999 9.92 3.17999 13.46 3.17999 14.38C3.17999 16.23 3.34999 17.54 5.56999 17.54C8.06999 17.54 9.21999 14.26 9.22999 14.23C9.27884 14.0806 9.37398 13.9506 9.50164 13.859C9.62929 13.7673 9.78282 13.7186 9.93999 13.72Z" fill="currentColor" />
  <path d="M12 7.46C11.8248 7.46074 11.6549 7.40015 11.5198 7.28873C11.3846 7.17731 11.2927 7.02209 11.26 6.85C11.1603 6.20466 11.1903 5.54592 11.3482 4.91231C11.5062 4.27871 11.789 3.68298 12.18 3.16C12.7217 2.5854 13.3862 2.14042 14.1237 1.8582C14.8613 1.57598 15.653 1.4638 16.44 1.53C16.5385 1.53 16.636 1.5494 16.727 1.58709C16.818 1.62478 16.9007 1.68003 16.9703 1.74967C17.04 1.81931 17.0952 1.90199 17.1329 1.99299C17.1706 2.08398 17.19 2.18151 17.19 2.28C17.19 2.37849 17.1706 2.47602 17.1329 2.56701C17.0952 2.65801 17.04 2.74069 16.9703 2.81033C16.9007 2.87998 16.818 2.93522 16.727 2.97291C16.636 3.0106 16.5385 3.03 16.44 3.03C15.8757 2.9725 15.3057 3.03941 14.7701 3.226C14.2345 3.4126 13.7464 3.71435 13.34 4.11C12.8291 4.82524 12.6142 5.71011 12.74 6.58C12.7572 6.6772 12.7551 6.77684 12.7338 6.87322C12.7125 6.96961 12.6723 7.06083 12.6156 7.14165C12.559 7.22248 12.4869 7.29133 12.4035 7.34424C12.3202 7.39715 12.2272 7.43309 12.13 7.45L12 7.46Z" fill="currentColor" />
</svg>