<?xml version="1.0" encoding="iso-8859-1"?>
<!-- Generator: Adobe Illustrator 18.0.0, SVG Export Plug-In . SVG Version: 6.00 Build 0)  -->
<!DOCTYPE svg PUBLIC "-//W3C//DTD SVG 1.1//EN" "http://www.w3.org/Graphics/SVG/1.1/DTD/svg11.dtd">
<svg fill="currentColor" version="1.1" id="Capa_1" xmlns="http://www.w3.org/2000/svg" xmlns:xlink="http://www.w3.org/1999/xlink" x="0px" y="0px" viewBox="0 0 231.945 231.945" style="enable-background:new 0 0 231.945 231.945;" xml:space="preserve">
	<g>
		<path d="M115.973,0c-42.871,0-77.75,34.879-77.75,77.75v89.913c0,35.445,28.837,64.282,64.282,64.282h26.936
		c35.445,0,64.282-28.837,64.282-64.282V77.75C193.723,34.879,158.844,0,115.973,0z M102.505,213.945
		c-25.521,0-46.282-20.762-46.282-46.282v-30.496h119.5v30.496c0,25.521-20.762,46.282-46.282,46.282H102.505z M112.973,50.771
		c0-1.654,1.346-3,3-3s3,1.346,3,3v31.917c0,1.654-1.346,3-3,3s-3-1.346-3-3V50.771z M175.723,119.167h-50.75v-17.535
		c7.082-3.379,12-10.589,12-18.945V50.771c0-8.355-4.918-15.566-12-18.945V18.679c28.691,4.353,50.75,29.184,50.75,59.071V119.167z
		 M106.973,18.679v13.147c-7.082,3.379-12,10.589-12,18.945v31.917c0,8.355,4.918,15.566,12,18.945v17.535h-50.75V77.75
		C56.223,47.862,78.281,23.032,106.973,18.679z" />
	</g>
	<g></g>
	<g></g>
	<g></g>
	<g></g>
	<g></g>
	<g></g>
	<g></g>
	<g></g>
	<g></g>
	<g></g>
	<g></g>
	<g></g>
	<g></g>
	<g></g>
	<g></g>
</svg>